<mxfile host="65bd71144e">
    <diagram id="gNyB2-L1OMMuarpVr6XJ" name="Page-1">
        <mxGraphModel dx="550" dy="574" grid="1" gridSize="10" guides="1" tooltips="1" connect="1" arrows="1" fold="1" page="1" pageScale="1" pageWidth="827" pageHeight="1169" math="0" shadow="0">
            <root>
                <mxCell id="0"/>
                <mxCell id="1" parent="0"/>
                <mxCell id="3" value="Start" style="rounded=1;whiteSpace=wrap;html=1;" vertex="1" parent="1">
                    <mxGeometry x="320" y="42" width="160" height="60" as="geometry"/>
                </mxCell>
                <mxCell id="4" value="Stop" style="rounded=1;whiteSpace=wrap;html=1;" vertex="1" parent="1">
                    <mxGeometry x="320" y="457" width="160" height="60" as="geometry"/>
                </mxCell>
                <mxCell id="5" value="firstName = &quot;Max&quot;" style="rounded=0;whiteSpace=wrap;html=1;" vertex="1" parent="1">
                    <mxGeometry x="320" y="170" width="160" height="60" as="geometry"/>
                </mxCell>
                <mxCell id="6" value="Ausgabe firstName" style="shape=parallelogram;perimeter=parallelogramPerimeter;whiteSpace=wrap;html=1;fixedSize=1;" vertex="1" parent="1">
                    <mxGeometry x="320" y="250" width="160" height="60" as="geometry"/>
                </mxCell>
                <mxCell id="7" value="&lt;h1&gt;POP&lt;/h1&gt;&lt;p&gt;Programmablaufplan&lt;/p&gt;" style="text;html=1;strokeColor=none;fillColor=none;spacing=5;spacingTop=-20;whiteSpace=wrap;overflow=hidden;rounded=0;" vertex="1" parent="1">
                    <mxGeometry x="40" y="40" width="190" height="80" as="geometry"/>
                </mxCell>
            </root>
        </mxGraphModel>
    </diagram>
</mxfile>